<svg id="Layer_1" data-name="Layer 1" xmlns="http://www.w3.org/2000/svg" xmlns:xlink="http://www.w3.org/1999/xlink" viewBox="0 0 88 88"><defs><style>.cls-1{fill:none;}.cls-2{clip-path:url(#clip-path);}.cls-3{fill:#89dac1;}.cls-4{fill:#5879da;}.cls-5{fill:#d6d6d6;}.cls-6{fill:#777;}.cls-7{fill:#fff;}.cls-8{fill:url(#_2_2_-_black);}</style><clipPath id="clip-path"><circle id="SVGID" class="cls-1" cx="44" cy="44" r="44"/></clipPath><pattern id="_2_2_-_black" data-name="2/2 - black" width="4" height="4" patternTransform="translate(4 4)" patternUnits="userSpaceOnUse" viewBox="0 0 4 4"><rect class="cls-1" width="4" height="4"/><rect width="2" height="2"/></pattern></defs><title>Artboard 1</title><g class="cls-2"><circle class="cls-3" cx="44" cy="44" r="44"/><path class="cls-4" d="M6.38,80H63.55L60.18,48.52A8.42,8.42,0,0,0,51.81,41H11.16a8,8,0,0,0-8,8.9Z"/><path class="cls-4" d="M21.51,19.9H38.86a6.77,6.77,0,0,1,6.77,6.77v7.91a3.5,3.5,0,0,1-3.5,3.5H18.24a3.5,3.5,0,0,1-3.5-3.5V26.67A6.77,6.77,0,0,1,21.51,19.9Z"/><path class="cls-5" d="M32.8,43.08H50.07a3.79,3.79,0,0,1,3.79,3.79v0a0,0,0,0,1,0,0H29a0,0,0,0,1,0,0v0A3.79,3.79,0,0,1,32.8,43.08Z"/><path class="cls-5" d="M62,46.87H22.46A12.51,12.51,0,0,0,10.05,61L12.4,91.67H76.32L73.45,57A11.58,11.58,0,0,0,62,46.87Z"/><polygon class="cls-3" points="20.26 40.99 13.56 40.99 64.23 91.66 70.93 91.66 20.26 40.99"/><path class="cls-6" d="M46.59,6.65h0A12.07,12.07,0,0,1,58.65,18.71V32.39a2.41,2.41,0,0,1-2.41,2.41H34.52a0,0,0,0,1,0,0V18.71A12.07,12.07,0,0,1,46.59,6.65Z"/><rect class="cls-6" x="34.52" y="18.71" width="16.09" height="28.16"/><path class="cls-7" d="M50.61,46.87H34.52v2h.69a13.45,13.45,0,0,1,9.51,3.94l.15.15a3.36,3.36,0,0,0,5.74-2.38Z"/><path class="cls-6" d="M59.95,24l0,0a.4.4,0,0,1-.28.69H57.92v-4h.73v.18A4.42,4.42,0,0,0,59.95,24Z"/><path d="M50.94,11.11h3.71a1,1,0,0,0,.68-1.63l-.93-.93a7,7,0,0,0-5-2.06H43a8.44,8.44,0,0,0-8.44,8.44V33.6l6.16-6.16a6.44,6.44,0,0,0,1.88-4.55V20.81a2.07,2.07,0,0,1,1.81-2.09,2,2,0,0,1,2.21,2v2h2V20.44a3.22,3.22,0,0,1,3.22-3.22h.8v-.14a3.22,3.22,0,0,0-.94-2.28l-1.6-1.6A1.23,1.23,0,0,1,50.94,11.11Z"/><rect class="cls-5" x="32.57" y="70.57" width="25.86" height="12.04" transform="translate(-40.83 54.6) rotate(-45)"/><path class="cls-6" d="M54.22,63.12l-1.95,1.95a3.18,3.18,0,0,0-.93,2.25h0a3.18,3.18,0,0,0,5.55,2.12l3.18-3.55a.16.16,0,0,0,0-.11V63.24a.16.16,0,0,0-.16-.16H54.33A.16.16,0,0,0,54.22,63.12Z"/><path class="cls-6" d="M68.63,58.32h3.46a0,0,0,0,1,0,0v.39a1.82,1.82,0,0,1-1.82,1.82H68.63a0,0,0,0,1,0,0V58.32A0,0,0,0,1,68.63,58.32Z"/><path d="M57.51,70.34h5.25a5.19,5.19,0,0,0,3.67-1.52h0a5.19,5.19,0,0,1,3.67-1.52H76V91.24H72.94v-4A6.46,6.46,0,0,0,71,82.63L65.12,76.7a6.46,6.46,0,0,0-4.57-1.89H57.69Z"/><path d="M94.54,70.34H89.25a5.19,5.19,0,0,1-3.67-1.52h0a5.19,5.19,0,0,0-3.67-1.52H76V91.24h3.07v-4A6.46,6.46,0,0,1,81,82.63l5.93-5.93a6.46,6.46,0,0,1,4.57-1.89h2.87Z"/><path d="M92.27,74.13A16.25,16.25,0,0,0,76,57.9V54.2a19.93,19.93,0,0,1,0,39.85v-3.7A16.25,16.25,0,0,0,92.27,74.13Z"/><path d="M59.82,74.13A16.25,16.25,0,0,1,76,57.9V54.2a19.93,19.93,0,1,0,0,39.85v-3.7A16.25,16.25,0,0,1,59.82,74.13Z"/><path class="cls-6" d="M61.94,55.41l-8.77,8.77,3.11,3.11h6.49a8.5,8.5,0,0,0,6-2.49L71,62.61a1,1,0,0,0,0-1.42l-5.78-5.78A2.3,2.3,0,0,0,61.94,55.41Z"/><rect class="cls-4" x="5.38" y="74.69" width="94.55" height="22.24"/><path class="cls-8" d="M45.33,79.14H74.51a0,0,0,0,1,0,0V97.79a0,0,0,0,1,0,0H35.29a0,0,0,0,1,0,0V89.18A10,10,0,0,1,45.33,79.14Z"/></g></svg>