<?xml version="1.0" encoding="utf-8"?>
<!-- Generator: Adobe Illustrator 19.2.1, SVG Export Plug-In . SVG Version: 6.00 Build 0)  -->
<!DOCTYPE svg PUBLIC "-//W3C//DTD SVG 1.0//EN" "http://www.w3.org/TR/2001/REC-SVG-20010904/DTD/svg10.dtd" [
	<!ENTITY ns_flows "http://ns.adobe.com/Flows/1.0/">
	<!ENTITY ns_extend "http://ns.adobe.com/Extensibility/1.0/">
	<!ENTITY ns_ai "http://ns.adobe.com/AdobeIllustrator/10.0/">
	<!ENTITY ns_graphs "http://ns.adobe.com/Graphs/1.0/">
	<!ENTITY ns_vars "http://ns.adobe.com/Variables/1.0/">
	<!ENTITY ns_imrep "http://ns.adobe.com/ImageReplacement/1.0/">
	<!ENTITY ns_sfw "http://ns.adobe.com/SaveForWeb/1.0/">
	<!ENTITY ns_custom "http://ns.adobe.com/GenericCustomNamespace/1.0/">
	<!ENTITY ns_adobe_xpath "http://ns.adobe.com/XPath/1.0/">
]>
<svg version="1.0" id="text_and_icons" xmlns:x="&ns_extend;" xmlns:i="&ns_ai;" xmlns:graph="&ns_graphs;"
	 xmlns="http://www.w3.org/2000/svg" xmlns:xlink="http://www.w3.org/1999/xlink" xmlns:a="http://ns.adobe.com/AdobeSVGViewerExtensions/3.0/"
	 x="0px" y="0px" viewBox="0 0 63.3 63.3" enable-background="new 0 0 63.3 63.3" xml:space="preserve">
<metadata>
	<sfw  xmlns="&ns_sfw;">
		<slices></slices>
		<sliceSourceBounds  bottomLeftOrigin="true" height="68.7" width="63.3" x="123.9" y="-421.7"></sliceSourceBounds>
	</sfw>
</metadata>
<circle fill="#F2F2F2" cx="31.7" cy="31.7" r="31.7"/>
<g>
	<defs>
		<path id="SVGID_1_" d="M60.4,26.9c2.5,15.9-8.4,30.8-24.3,33.2C20.2,62.6,5.3,51.7,2.9,35.8S12.1,5.8,28,3.3S58,11,60.4,26.9z"/>
	</defs>
	<clipPath id="SVGID_2_">
		<use xlink:href="#SVGID_1_"  overflow="visible"/>
	</clipPath>
	<g clip-path="url(#SVGID_2_)">
		<g>
			<g>
				<g>
					
						<rect x="19.7" y="19.5" transform="matrix(2.130014e-03 -1 1 2.130014e-03 5.9813 59.5794)" fill="#6D6E71" width="26.3" height="14.7"/>
					<path fill="#414042" d="M39.3,11.4l-12.8,0c-1,0-1.8,0.8-1.8,1.8l-0.1,28.9c0,1,0.8,1.8,1.8,1.8l12.8,0c1,0,1.8-0.8,1.8-1.8
						l0.1-28.9C41.1,12.3,40.3,11.4,39.3,11.4z M30.2,12.4l5.3,0l0,0.6l-5.3,0L30.2,12.4z M32.8,42.9c-0.6,0-1-0.5-1-1
						c0-0.6,0.5-1,1-1c0.6,0,1,0.5,1,1C33.8,42.4,33.4,42.9,32.8,42.9z M40.1,40l-14.7,0l0.1-26l14.7,0L40.1,40z"/>
				</g>
			</g>
			<g>
				<path fill="#F5C8A2" d="M41.1,36.2c0,0,0.2,0,0.5,0.2c0,0,0.3,0.1,0.4,0.3c0.2,0.2,0.6,0.7,0.9,1.1c0.3,0.4,0.8,1.7,0.8,2.1
					c0,0.4-0.2,1.5-0.7,2.3c-0.5,0.8-0.8,1-1.3,1c-0.5,0-1.3-0.3-1.6-0.9c-0.3-0.6-0.2-1.4,0-1.8s0.3-0.8,0.4-1
					c0.1-0.2,0.4-0.7,0.4-0.9c0.1-0.2,0-0.6,0-0.6L41.1,36.2L41.1,36.2z"/>
				<path fill="#F5DFBF" d="M41.4,40.6c0.1-0.2,0.8-0.3,1.2,0.2c0.4,0.5,0.2,1,0.1,1.3c-0.1,0.3-0.1,0.4-0.2,0.4s-0.8-0.8-1-1.2
					C41.3,41,41.2,40.8,41.4,40.6z"/>
				<g>
					<path fill="#E8BA9C" d="M41.8,38.4c-0.2-0.1-0.5-0.1-0.7-0.1c-0.1,0,0,0.1,0,0.1C41.3,38.4,41.5,38.4,41.8,38.4
						C41.8,38.5,41.8,38.4,41.8,38.4L41.8,38.4z"/>
				</g>
			</g>
			<g>
				<path fill="#F5C8A2" d="M41,23.8c0,0,0.6,0.1,0.8,0.2c0.2,0.1,0.5,0.4,0.6,0.6c0.2,0.2,0.5,0.9,0.5,1.1c0,0.2,0.1,1,0.1,1.2
					s0.1,0.7,0.1,0.8c0,0.1,0.2,0.6-0.2,0.8c-0.3,0.2-0.6,0.4-1.2,0.4c-0.5,0-0.4,0-0.4,0s0.4,0,0.6,0.2c0.2,0.1,0.7,0.5,1,0.8
					c0.3,0.3,0.7,0.7,0.9,1.1c0.1,0.4,0.1,0.9,0.1,1.1c-0.1,0.3-0.3,1.4-0.3,1.7c0,0.3,0,0.8-0.2,1.1c-0.2,0.3-0.4,0.5-1,0.5
					c-0.5,0-1-0.1-1.3-0.3C41,35,40.6,34.3,40.6,34c0-0.3,0-1,0.2-1.6c0.2-0.6,0.2-0.6,0.2-0.7s0-2.9,0-2.9L41,23.8z"/>
				<path fill="#E2B38A" d="M41,28.8c0,0,0.3,0.1,0.6,0.1c0.1,0,0.4,0,0.8,0.4c0.4,0.4,0.6,0.7,0.1,0.7c-0.6,0.1-0.8,0-1.2,0.2
					c-0.3,0.2-0.3,0.3-0.3,0.3L41,28.8z"/>
				<path fill="#F5DFBF" d="M42.1,32.3c0.3-0.1,0.7-0.1,1,0.1c0.2,0.3,0.3,0.3,0.3,0.7c0,0.4,0,0.9-0.1,1c0,0.1,0,0.3-0.3,0.2
					s-0.9-0.4-1.1-0.7c-0.2-0.3-0.3-0.6-0.3-0.8c0-0.2,0.1-0.3,0.2-0.4S42.1,32.3,42.1,32.3z"/>
				<path fill="#F5DFBF" d="M42,25.5c0.2,0,0.6,0.2,0.8,0.5S43,26.8,43,27c0,0.2,0.1,0.6,0.1,0.6s0,0.2-0.2-0.1
					c-0.2-0.3-0.6-0.9-0.8-1.1c-0.1-0.2-0.5-0.6-0.5-0.8C41.6,25.5,41.8,25.5,42,25.5z"/>
				<g>
					<path fill="#E8BA9C" d="M41.9,31.4c-0.3,0-0.6,0.1-0.9,0.3c0,0,0,0.1,0.1,0.1C41.3,31.5,41.6,31.5,41.9,31.4
						C42,31.5,42,31.4,41.9,31.4L41.9,31.4z"/>
				</g>
			</g>
			<g>
				<defs>
					<path id="SVGID_3_" d="M24.6,33.1c0,0,0.1,6.3,0,6.7c-0.1,0.4,0.5,2.1,0.5,2.1l1.4,2.1l10.4,0.1l0.8,1.8l0.2,1.4l-3,7.3
						l-3.4,11.6L25,68.7l-21.6-9l11-28.4l10.1-10.5l2.3-0.5l0.6,8.1l-1.2,1.9c0,0-0.4,0.5-0.8,1.1C25,32,24.6,33.1,24.6,33.1z"/>
				</defs>
				<clipPath id="SVGID_4_">
					<use xlink:href="#SVGID_3_"  overflow="visible"/>
				</clipPath>
				<g clip-path="url(#SVGID_4_)">
					<path fill="#F5C8A2" d="M15.1,55.9c0,0,2.6-6,2.7-6.6c0.1-0.6,0.2-2.8,0.2-5.4c0-2.1-0.1-3.5-0.3-4.4c-0.2-0.9-0.4-1.6-0.4-2.6
						c0-1,0.2-1.4,0.5-2s0.8-1,0.9-1.3c0.1-0.2,1.4-2.3,1.7-3c0.4-0.6,1.2-2,1.3-2.4c0.2-0.3,0.4-0.5,0.4-0.5l0.1,0l0.1-0.1l0.1-0.2
						c0,0,0.4-0.4,0.4-0.5c0.1-0.1,0.1-0.2,0.2-0.3c0.1,0,0.3-0.2,0.3-0.2s0.1-0.4,0.3-0.6s0.4-0.5,0.6-0.8c0.2-0.2,0.5-1.6,0.8-2.1
						c0.3-0.5,0.3-0.7,0.7-0.7c0.4,0,0.6,0,0.8,0.2s0.2,0.5,0.2,0.7c0.1,0.5,0.2,1.4,0.2,2.3c0,0.3,0.1,1.9,0,2.5
						c-0.1,0.5-0.1,0.9-0.1,1.2c0,0.3,0.3,9.2,0.3,9.2s0,0.6,0,0.9s0.1,0.7,0.2,0.9c0.1,0.2,0.6,1.5,0.7,1.7s0.4,0.9,0.5,1.1
						S28.7,43,29,43c0,0,3.5-0.1,8.1-0.2c0,0-0.3,0.8-0.5,0.9c0,0.1-0.3,1-0.5,1.2c-0.2,0.4-0.6,1.1-1.2,2.4
						c-0.2,0.5-1.6,2.9-1.9,3.3c-0.3,0.4-0.8,1.3-1.8,2.4c-0.3,0.4-2.4,3.8-2.5,4.1c-0.1,0.4-0.9,5.2-0.8,5.6
						c0.1,0.4-14.4-4-14.1-4.5C14.3,57.7,15.1,55.9,15.1,55.9z"/>
					<path fill="#E2B38A" d="M26.8,28.9c-0.1,0.1,0,0.3-0.3,0.7c-0.3,0.5-0.6,0.8-0.6,0.8c-0.1,0-0.1,0.1-0.3,0.3
						c-0.3,0.2-0.1,0.3-0.3,0.7c-0.2,0.4-0.2,0.5-0.3,0.6c-0.1,0.1-0.1,0.7-0.3,0.8c-0.2,0.1-0.3,0.7-0.4,0.8
						c-0.1,0.1-0.3,1-0.3,1.1c0,0.2,0.1,0.7,0.1,0.7s0.5,0.4,0.6,0.4c0.1,0,0.6,0.1,0.7,0.1c0.5,0.1,1.1,0.6,1.4,1.3
						c0.1,0.2,0.1,0.3,0.1,0.3l-0.1-5.4L26.8,28.9z"/>
					<path fill="#F5DFBF" d="M24.2,25C24.2,25.1,24.2,25.1,24.2,25c0.2-0.1,0.6-0.6,0.7-1c0.1-0.4,0.3-0.7,0.4-1.3
						c0.1-0.4,0-0.3,0-0.3s-0.1,0.1-0.2,0.3c-0.2,0.4-0.4,0.7-0.6,1.4C24.4,24.6,24.3,24.9,24.2,25z"/>
					<g>
						<path fill="#E8BA9C" d="M22.2,28c0.2,0.1,0.4,0.2,0.6,0.4c0.1,0.1,0.2-0.1,0.1-0.1c-0.2-0.2-0.4-0.3-0.6-0.4
							C22.1,27.8,22.1,28,22.2,28L22.2,28z"/>
					</g>
					<g>
						<path fill="#E8BA9C" d="M23.3,26.6c0.1,0.1,0.3,0.2,0.4,0.3c0.1,0.1,0.2,0,0.1-0.1c-0.1-0.1-0.3-0.2-0.4-0.3
							C23.3,26.4,23.2,26.6,23.3,26.6L23.3,26.6z"/>
					</g>
					<g>
						<path fill="#E8BA9C" d="M25.4,30.8C25.4,30.8,25.4,30.8,25.4,30.8C25.4,30.7,25.4,30.7,25.4,30.8
							C25.4,30.7,25.4,30.7,25.4,30.8c-0.1-0.1-0.1-0.1-0.2-0.1c0,0-0.1,0-0.1,0.1c0,0,0,0.1,0.1,0.1c0,0,0,0,0,0c0,0,0,0,0,0
							c0,0,0,0,0,0c0,0,0,0,0,0c0,0,0,0,0,0c0,0,0,0,0,0c0,0,0.1,0,0.1,0C25.5,30.8,25.5,30.8,25.4,30.8L25.4,30.8z"/>
					</g>
					<g>
						<path fill="#E8BA9C" d="M28.6,43.2c0.1,0.7,0,1.5-0.5,2c-0.1,0.1,0,0.2,0.1,0.1c0.6-0.6,0.7-1.4,0.5-2.2
							C28.7,43.1,28.6,43.1,28.6,43.2L28.6,43.2z"/>
					</g>
					<g>
						<path fill="#E8BA9C" d="M36.6,43.7c-0.4-0.4-0.9-0.6-1.4-0.7c-0.1,0-0.1,0.2,0,0.2c0.5,0.1,0.9,0.2,1.3,0.6
							C36.6,43.9,36.7,43.8,36.6,43.7L36.6,43.7z"/>
					</g>
				</g>
			</g>
			<g>
				<path fill="#FFFFFF" d="M13.3,57.4c0-0.2,0-0.4,0.1-0.5l3.3-6.8c0.1-0.1,0.3-0.2,0.4-0.2c0,0,4.6,0.5,7.2,1.5
					c2.5,1,6.6,2.7,6.6,2.7c0.1,0.1,0.2,0.2,0.2,0.4l-1.9,7.7c0,0.2-0.2,0.2-0.3,0.2l-15.1-3.6c-0.2,0-0.3-0.2-0.3-0.4L13.3,57.4z"
					/>
				<path fill="#0F8BF8" d="M11.4,59.5c0-0.2,0-0.5,0.1-0.6l3.8-7.8c0.1-0.2,0.3-0.3,0.5-0.3c0,0,5.3,0.6,8.2,1.7
					c2.9,1.1,7.6,3.1,7.6,3.1c0.2,0.1,0.3,0.3,0.2,0.4l-2.2,8.8c0,0.2-0.2,0.3-0.4,0.2L11.8,61c-0.2,0-0.3-0.2-0.3-0.4L11.4,59.5z"
					/>
			</g>
		</g>
	</g>
</g>
<path fill="#FFFFFF" d="M33,23c-2.5,0-4.5,1.9-4.7,4.4H32v-0.5c0-0.1,0.1-0.2,0.2-0.2h1.6c0.1,0,0.2,0.1,0.2,0.2v1.6
	c0,0.1-0.1,0.2-0.2,0.2h-1.6c-0.1,0-0.2-0.1-0.2-0.2V28h-3.7c0.2,2.5,2.2,4.4,4.7,4.4c2.6,0,4.7-2.1,4.7-4.7S35.6,23,33,23z"/>
</svg>
