<svg viewBox="0 0 121 120" xmlns="http://www.w3.org/2000/svg" xmlns:xlink="http://www.w3.org/1999/xlink">
  <defs>
    <path d="M.524 59.337c0 32.76 26.756 59.318 59.764 59.318 33.007 0 59.767-26.558 59.767-59.318S93.295.02 60.288.02.524 26.578.524 59.338z" id="a"/>
  </defs>
  <g fill="none" fill-rule="evenodd">
    <path fill="#5879DA" d="M23 114h14v-12H23"/>
    <g transform="translate(0 1)">
      <mask id="b" fill="#fff">
        <use xlink:href="#a"/>
      </mask>
      <path fill="#D6D6D5" mask="url(#b)" d="M-2.2 122.275h126.444V-4.78H-2.2"/>
      <path d="M39.642 62.736h41.294c8.99 0 16.28 7.234 16.28 16.156v39.763H23.363V78.89c0-8.92 7.288-16.154 16.278-16.154" fill="#5879DA" mask="url(#b)"/>
      <path d="M38.927 30.265c0 8.694 7.1 15.74 15.86 15.74s15.857-7.046 15.857-15.74c0-8.694-7.098-15.743-15.857-15.743-8.76 0-15.86 7.05-15.86 15.743" fill="#F9F9F9" mask="url(#b)"/>
      <path d="M48 62.736h11.388v-5.84c0-4.536-1.817-8.89-5.05-12.1l-1.33-1.32c-3.234-3.21-5.052-7.56-5.052-12.1h-3.173v31.36H48z" fill="#000" mask="url(#b)"/>
      <path fill="#F9F9F9" mask="url(#b)" d="M49.645 62.736h21V38.422h-21"/>
      <path fill="#000" mask="url(#b)" d="M23.364 118.655h73.85V86.193h-73.85"/>
      <path d="M54.786 52.313H41.88c-1.632 0-2.953-1.313-2.953-2.93V30.265h15.86v22.048zm-15.86-18.775v6.267H37.35c-.656 0-.984-.786-.52-1.247 1.34-1.33 2.097-3.137 2.097-5.02" fill="#F9F9F9" mask="url(#b)"/>
      <path d="M54.786 14.523c8.722-.24 15.86 6.65 15.86 15.31V53.02l-5.48-5.436c-1.3-1.292-2.032-3.043-2.032-4.87v-8.05c0-1.347-1.1-2.44-2.456-2.44-1.356 0-2.457 1.093-2.457 2.44v.363h-1.4c-2.375 0-4.302-1.912-4.302-4.27v-2c0-1.707-1.395-3.092-3.116-3.092h-9.78c1.984-6.45 8.026-11.14 15.173-11.14" fill="#000" mask="url(#b)"/>
      <path d="M34.458 29.403h19.977V19.82H41.68c-3.988 0-7.222 3.21-7.222 7.17v2.413z" fill="#000" mask="url(#b)"/>
      <path fill="#89DAC1" mask="url(#b)" d="M49.645 118.497h21v-55.76h-21"/>
      <path d="M60.092 72.104h.106c5.77 0 10.447-4.642 10.447-10.368h-21c0 5.727 4.678 10.37 10.447 10.37" fill="#F9F9F9" mask="url(#b)"/>
      <path d="M70.645 62.736h11.387v-5.84c0-4.536-1.817-8.89-5.05-12.1l-1.33-1.32c-3.234-3.21-5.05-7.56-5.05-12.1h-7.468V55.28c0 4.12 3.363 7.457 7.51 7.457z" fill="#000" mask="url(#b)"/>
    </g>
    <path d="M105.73 13.806c0 7.354-6.3 13.315-14.074 13.315S77.58 21.16 77.58 13.81 83.882.49 91.656.49c7.774 0 14.075 5.962 14.075 13.316z" fill="#FFF"/>
    <path d="M77.956 16.828L88.65 48.575c.97 2.874 5.04 2.874 6.01 0l10.69-31.747H77.956z" fill="#FFF"/>
    <path d="M98.138 13.806c0 3.387-2.902 6.132-6.483 6.132-3.58 0-6.482-2.745-6.482-6.132 0-3.387 2.903-6.132 6.482-6.132 3.58 0 6.483 2.745 6.483 6.132" fill="#89DAC1"/>
    <path fill="#F9F9F9" d="M9.947 79.34h9.222v-4.454H9.94"/>
    <path d="M23.464 79.34H8.052v25.81c0 4.834 3.925 8.752 8.766 8.752h6.646v-34.56z" fill="#5879DA"/>
    <path d="M22.172 75.696h-8.64c-.713 0-1.29-.577-1.29-1.29V53.563c-.002-.712.577-1.29 1.29-1.29h8.64c.713 0 1.29.578 1.29 1.29v20.843c0 .713-.577 1.29-1.29 1.29" fill="#89DAC1"/>
    <path d="M20.562 75.696h-8.64c-.713 0-1.29-.577-1.29-1.29V53.563c0-.712.577-1.29 1.29-1.29h8.64c.712 0 1.29.578 1.29 1.29v20.843c0 .713-.578 1.29-1.292 1.29" fill="#000"/>
    <path d="M19.17 71.627V65.84h-3.562.934c1.45 0 2.627-1.175 2.627-2.624H9.09c-1.667 0-3.02 1.35-3.02 3.014v3.362c0 1.116.445 2.186 1.235 2.975l2.56 2.553c1.023 1.022 2.41 1.597 3.86 1.597h.34c2.816 0 5.1-2.28 5.1-5.09" fill="#F9F9F9"/>
  </g>
</svg>
